# Blender v2.93.5 OBJ File: 'Wave Function Components.blend'
# www.blender.org
mtllib chunk_5_peak.mtl
o Peak_Cube.003
v 0.000000 0.000000 0.000000
v 1.000000 -1.000000 -1.000000
v 1.000000 -1.000000 1.000000
v -1.000000 -1.000000 -1.000000
v -1.000000 -1.000000 1.000000
vt 0.836058 0.369398
vt 0.638162 0.184699
vt 0.638162 0.369398
vt 0.000000 0.445903
vt 0.197895 0.630602
vt 0.197895 0.445903
vt 0.918029 0.815301
vt 0.918029 0.630602
vt 0.720133 0.630602
vt 0.720134 0.815301
vt 0.638162 0.184699
vt 0.440267 0.369398
vt 0.638162 0.369398
vt 0.000000 0.261204
vt 0.000000 0.445903
vn 0.0000 0.7071 0.7071
vn -0.7071 0.7071 0.0000
vn 0.0000 -1.0000 0.0000
vn 0.7071 0.7071 0.0000
vn 0.0000 0.7071 -0.7071
usemtl Material
s off
f 3/1/1 1/2/1 5/3/1
f 5/4/2 1/5/2 4/6/2
f 4/7/3 2/8/3 3/9/3 5/10/3
f 2/11/4 1/12/4 3/13/4
f 4/6/5 1/14/5 2/15/5
