# Blender v2.82 (sub 7) OBJ File: ''
# www.blender.org
mtllib chunk_null.mtl
o Cube
v 0.994227 0.994227 -0.994227
v 1.005774 1.005774 -1.005774
v 0.994227 -0.994227 -0.994227
v 1.005774 -1.005774 -1.005774
v 0.994227 0.994227 0.994227
v 1.005774 1.005774 1.005774
v 0.994227 -0.994227 0.994227
v 1.005774 -1.005774 1.005774
v -0.994227 0.994227 -0.994227
v -1.005774 1.005774 -1.005774
v -0.994227 -0.994227 -0.994227
v -1.005774 -1.005774 -1.005774
v -0.994227 0.994227 0.994227
v -1.005774 1.005774 1.005774
v -0.994227 -0.994227 0.994227
v -1.005774 -1.005774 1.005774
v 0.990000 1.000000 -0.990000
v -0.990000 1.000000 -0.990000
v -0.990000 1.000000 0.990000
v 0.990000 1.000000 0.990000
v 0.990000 -0.990000 1.000000
v 0.990000 0.990000 1.000000
v -0.990000 0.990000 1.000000
v -0.990000 -0.990000 1.000000
v -1.000000 -0.990000 0.990000
v -1.000000 0.990000 0.990000
v -1.000000 0.990000 -0.990000
v -1.000000 -0.990000 -0.990000
v -0.990000 -1.000000 -0.990000
v 0.990000 -1.000000 -0.990000
v 0.990000 -1.000000 0.990000
v -0.990000 -1.000000 0.990000
v 1.000000 -0.990000 -0.990000
v 1.000000 0.990000 -0.990000
v 1.000000 0.990000 0.990000
v 1.000000 -0.990000 0.990000
v -0.990000 -0.990000 -1.000000
v -0.990000 0.990000 -1.000000
v 0.990000 0.990000 -1.000000
v 0.990000 -0.990000 -1.000000
vt 0.992129 0.339799
vt 0.992129 0.000724
vt 0.993255 0.000000
vt 0.993255 0.340523
vt 0.987233 0.341776
vt 0.987233 0.002701
vt 0.990065 0.000000
vt 0.990065 0.344477
vt 0.995318 0.669380
vt 0.995318 0.341043
vt 0.996297 0.340523
vt 0.996297 0.670261
vt 0.662387 0.341776
vt 0.660043 0.344477
vt 0.990065 0.339799
vt 0.990065 0.000724
vt 0.991003 0.000000
vt 0.991003 0.340523
vt 0.662387 0.002701
vt 0.660043 0.000000
vt 0.997275 0.999118
vt 0.997275 0.670781
vt 0.998253 0.670261
vt 0.998253 1.000000
vt 1.000000 0.341246
vt 1.000000 0.680321
vt 0.999232 0.681045
vt 0.999232 0.340523
vt 0.327190 0.347179
vt 0.002344 0.347179
vt 0.000000 0.344478
vt 0.330022 0.344478
vt 0.992129 0.000724
vt 0.992129 0.339799
vt 0.327190 0.686254
vt 0.330022 0.688955
vt 0.994193 0.339799
vt 0.994193 0.000724
vt 0.995319 0.000000
vt 0.995319 0.340523
vt 0.002344 0.686254
vt 0.000000 0.688955
vt 0.990065 0.680321
vt 0.990065 0.341246
vt 0.991003 0.340523
vt 0.991003 0.681045
vt 0.997275 0.670781
vt 0.997275 0.999118
vt 0.996297 1.000000
vt 0.996297 0.670261
vt 0.332365 0.347179
vt 0.332365 0.686254
vt 0.330022 0.688955
vt 0.330022 0.344478
vt 0.998253 0.329219
vt 0.998253 0.000882
vt 0.999232 0.000000
vt 0.999232 0.329739
vt 0.657211 0.347179
vt 0.660043 0.344478
vt 0.998253 0.669741
vt 0.998253 0.341404
vt 0.999231 0.340523
vt 0.999231 0.670261
vt 0.657211 0.686254
vt 0.660043 0.688955
vt 0.998253 0.999480
vt 0.998253 0.671143
vt 0.999231 0.670261
vt 0.999231 1.000000
vt 0.994192 0.341246
vt 0.994193 0.680321
vt 0.993255 0.681045
vt 0.993255 0.340523
vt 0.662387 0.347179
vt 0.662387 0.686254
vt 0.660043 0.344478
vt 0.996297 0.000520
vt 0.996297 0.328857
vt 0.995319 0.329739
vt 0.995319 0.000000
vt 0.987233 0.347179
vt 0.990065 0.344478
vt 0.992129 0.341246
vt 0.992129 0.680321
vt 0.987233 0.686254
vt 0.990065 0.688955
vt 0.998253 0.341043
vt 0.998253 0.669380
vt 0.997275 0.670261
vt 0.997275 0.340523
vt 0.995318 0.999118
vt 0.995318 0.670781
vt 0.996297 0.670261
vt 0.996297 1.000000
vt 0.657700 0.341776
vt 0.657700 0.002701
vt 0.660043 0.000000
vt 0.660043 0.344478
vt 0.997275 0.328857
vt 0.997275 0.000520
vt 0.998253 0.000000
vt 0.998253 0.329739
vt 0.332854 0.341776
vt 0.996297 0.328857
vt 0.996297 0.000520
vt 0.997275 0.000000
vt 0.997275 0.329739
vt 0.332854 0.002701
vt 0.330022 0.000000
vt 0.996297 0.669380
vt 0.996297 0.341043
vt 0.997275 0.340523
vt 0.997275 0.670261
vt 1.000000 0.000724
vt 1.000000 0.339799
vt 0.999232 0.340523
vt 0.999232 0.000000
vt 0.002344 0.341776
vt 0.327190 0.341776
vt 0.330022 0.344477
vt 0.000000 0.344478
vt 0.994192 0.000724
vt 0.994193 0.339799
vt 0.002344 0.002701
vt 0.000000 0.000000
vt 0.995318 0.341246
vt 0.995318 0.680321
vt 0.994192 0.681045
vt 0.994192 0.340523
vt 0.327190 0.002701
vt 0.330022 0.000000
vt 0.992129 0.680321
vt 0.992129 0.341246
vn 0.0000 -0.5907 0.8069
vn 0.0000 0.9391 0.3437
vn 0.8069 -0.5907 0.0000
vn 0.3437 0.9391 0.0000
vn 0.0000 -0.5907 -0.8069
vn 0.0000 0.9391 -0.3437
vn -0.8069 -0.5907 0.0000
vn -0.3437 0.9391 0.0000
vn -0.8069 0.0000 -0.5907
vn -0.3437 0.0000 0.9391
vn 0.0000 -0.8069 -0.5907
vn 0.0000 -0.3437 0.9391
vn 0.8069 0.0000 -0.5907
vn 0.3437 0.0000 0.9391
vn 0.0000 0.8069 -0.5907
vn 0.0000 0.3437 0.9391
vn 0.5907 0.0000 -0.8069
vn -0.9391 0.0000 -0.3437
vn 0.5907 -0.8069 0.0000
vn -0.9391 -0.3437 0.0000
vn 0.5907 0.0000 0.8069
vn -0.9391 0.0000 0.3437
vn 0.5907 0.8069 0.0000
vn -0.9391 0.3437 0.0000
vn 0.0000 0.5907 0.8069
vn 0.0000 -0.9391 0.3437
vn -0.8069 0.5907 0.0000
vn -0.3437 -0.9391 0.0000
vn 0.0000 0.5907 -0.8069
vn 0.0000 -0.9391 -0.3437
vn 0.8069 0.5907 0.0000
vn 0.3437 -0.9391 0.0000
vn -0.5907 0.0000 0.8069
vn 0.9391 0.0000 0.3437
vn -0.5907 -0.8069 0.0000
vn 0.9391 -0.3437 0.0000
vn -0.5907 0.0000 -0.8069
vn 0.9391 0.0000 -0.3437
vn -0.5907 0.8069 0.0000
vn 0.9391 0.3437 0.0000
vn 0.8069 0.0000 0.5907
vn 0.3437 0.0000 -0.9391
vn 0.0000 -0.8069 0.5907
vn 0.0000 -0.3437 -0.9391
vn -0.8069 0.0000 0.5907
vn -0.3437 0.0000 -0.9391
vn 0.0000 0.8069 0.5907
vn 0.0000 0.3437 -0.9391
usemtl Material
s off
f 17/1/1 18/2/1 9/3/1 1/4/1
f 18/5/2 17/6/2 2/7/2 10/8/2
f 18/9/3 19/10/3 13/11/3 9/12/3
f 19/13/4 18/5/4 10/8/4 14/14/4
f 19/15/5 20/16/5 5/17/5 13/18/5
f 20/19/6 19/13/6 14/14/6 6/20/6
f 20/21/7 17/22/7 1/23/7 5/24/7
f 17/6/8 20/19/8 6/20/8 2/7/8
f 21/25/9 22/26/9 5/27/9 7/28/9
f 22/29/10 21/30/10 8/31/10 6/32/10
f 22/33/11 23/34/11 13/18/11 5/17/11
f 23/35/12 22/29/12 6/32/12 14/36/12
f 23/37/13 24/38/13 15/39/13 13/40/13
f 24/41/14 23/35/14 14/36/14 16/42/14
f 24/43/15 21/44/15 7/45/15 15/46/15
f 21/30/16 24/41/16 16/42/16 8/31/16
f 25/47/17 26/48/17 13/49/17 15/50/17
f 26/51/18 25/52/18 16/53/18 14/54/18
f 26/55/19 27/56/19 9/57/19 13/58/19
f 27/59/20 26/51/20 14/54/20 10/60/20
f 27/61/21 28/62/21 11/63/21 9/64/21
f 28/65/22 27/59/22 10/60/22 12/66/22
f 28/67/23 25/68/23 15/69/23 11/70/23
f 25/52/24 28/65/24 12/66/24 16/53/24
f 29/71/25 30/72/25 3/73/25 11/74/25
f 30/75/26 29/76/26 12/66/26 4/77/26
f 30/78/27 31/79/27 7/80/27 3/81/27
f 31/82/28 30/75/28 4/77/28 8/83/28
f 31/84/29 32/85/29 15/46/29 7/45/29
f 32/86/30 31/82/30 8/83/30 16/87/30
f 32/88/31 29/89/31 11/90/31 15/91/31
f 29/76/32 32/86/32 16/87/32 12/66/32
f 33/92/33 34/93/33 1/94/33 3/95/33
f 34/96/34 33/97/34 4/98/34 2/99/34
f 34/100/35 35/101/35 5/102/35 1/103/35
f 35/104/36 34/96/36 2/99/36 6/32/36
f 35/105/37 36/106/37 7/107/37 5/108/37
f 36/109/38 35/104/38 6/32/38 8/110/38
f 36/111/39 33/112/39 3/113/39 7/114/39
f 33/97/40 36/109/40 8/110/40 4/98/40
f 37/115/41 38/116/41 9/117/41 11/118/41
f 38/119/42 37/120/42 12/121/42 10/122/42
f 38/123/43 39/124/43 1/4/43 9/3/43
f 39/125/44 38/119/44 10/122/44 2/126/44
f 39/127/45 40/128/45 3/129/45 1/130/45
f 40/131/46 39/125/46 2/126/46 4/132/46
f 40/133/47 37/134/47 11/74/47 3/73/47
f 37/120/48 40/131/48 4/132/48 12/121/48
