# Blender v2.82 (sub 7) OBJ File: 'Wave Function Components.blend'
# www.blender.org
mtllib chunk_2.mtl
o Cube_2_Cube.001
v 1.000000 -1.000000 -1.000000
v 1.000000 -1.000000 1.000000
v -1.000000 1.000000 -1.000000
v -1.000000 -1.000000 -1.000000
v -1.000000 1.000000 1.000000
v -1.000000 -1.000000 1.000000
vt 0.242371 0.000000
vt 0.242371 0.261204
vt 0.440267 0.261204
vt 0.440267 0.000000
vt 0.580200 0.369398
vt 0.440267 0.500000
vt 0.580200 0.630602
vt 0.242371 0.261204
vt 0.242371 0.445903
vt 0.440267 0.445903
vt 0.440267 0.261204
vt 0.197895 0.815301
vt 0.197895 0.630602
vt 0.000000 0.630602
vt 0.000000 0.815301
vt 0.860067 0.369398
vt 0.720134 0.500000
vt 0.860067 0.630602
vn 0.7071 0.7071 0.0000
vn 0.0000 0.0000 1.0000
vn -1.0000 0.0000 0.0000
vn 0.0000 -1.0000 0.0000
vn 0.0000 0.0000 -1.0000
usemtl Material
s off
f 1/1/1 3/2/1 5/3/1 2/4/1
f 5/5/2 6/6/2 2/7/2
f 6/8/3 5/9/3 3/10/3 4/11/3
f 4/12/4 1/13/4 2/14/4 6/15/4
f 1/16/5 4/17/5 3/18/5
