# Blender v2.82 (sub 7) OBJ File: 'Wave Function Components.blend'
# www.blender.org
mtllib chunk_1.mtl
o Cube_1_Cube
v 1.000000 1.000000 -1.000000
v 1.000000 -1.000000 -1.000000
v 1.000000 1.000000 1.000000
v 1.000000 -1.000000 1.000000
v -1.000000 1.000000 -1.000000
v -1.000000 -1.000000 -1.000000
v -1.000000 1.000000 1.000000
v -1.000000 -1.000000 1.000000
vt 0.918029 0.815301
vt 0.720133 0.815301
vt 0.720133 1.000000
vt 0.918029 1.000000
vt 0.836058 0.369398
vt 0.836058 0.184699
vt 0.638162 0.184699
vt 0.638162 0.369398
vt 0.000000 0.445903
vt 0.000000 0.630602
vt 0.197895 0.630602
vt 0.197895 0.445903
vt 0.918029 0.815301
vt 0.918029 0.630602
vt 0.720133 0.630602
vt 0.720134 0.815301
vt 0.638162 0.184699
vt 0.440267 0.184699
vt 0.440267 0.369398
vt 0.638162 0.369398
vt 0.197895 0.261204
vt 0.000000 0.261204
vt 0.000000 0.445903
vn 0.0000 1.0000 0.0000
vn 0.0000 0.0000 1.0000
vn -1.0000 0.0000 0.0000
vn 0.0000 -1.0000 0.0000
vn 1.0000 0.0000 0.0000
vn 0.0000 0.0000 -1.0000
usemtl Material
s off
f 1/1/1 5/2/1 7/3/1 3/4/1
f 4/5/2 3/6/2 7/7/2 8/8/2
f 8/9/3 7/10/3 5/11/3 6/12/3
f 6/13/4 2/14/4 4/15/4 8/16/4
f 2/17/5 1/18/5 3/19/5 4/20/5
f 6/12/6 5/21/6 1/22/6 2/23/6
