# Blender v2.93.5 OBJ File: 'House Tiles.blend'
# www.blender.org
mtllib hs_corner_mid.mtl
o corner_mid_Cube.006
v 1.000000 1.000000 -1.000000
v 1.000000 -1.000000 -1.000000
v -1.000000 1.000000 -1.000000
v -1.000000 -1.000000 -1.000000
v -1.000000 1.000000 1.000000
v -1.000000 -1.000000 1.000000
v -0.700000 1.000000 1.000000
v -0.700000 -1.000000 1.000000
v -0.700000 1.000000 -0.700000
v -0.700000 -1.000000 -0.700000
v 1.000000 1.000000 -0.700000
v 1.000000 -1.000000 -0.700000
vt 0.375000 0.000000
vt 0.625000 0.000000
vt 0.625000 0.250000
vt 0.375000 0.250000
vt 0.625000 0.500000
vt 0.375000 0.500000
vt 0.375000 0.000000
vt 0.625000 0.000000
vt 0.375000 0.000000
vt 0.625000 0.000000
vt 0.375000 0.000000
vt 0.625000 0.000000
vt 0.375000 0.000000
vt 0.625000 0.000000
vn -1.0000 0.0000 0.0000
vn 0.0000 0.0000 -1.0000
vn 0.0000 0.0000 1.0000
vn 1.0000 0.0000 0.0000
vn 0.0000 1.0000 0.0000
vn 0.0000 -1.0000 0.0000
usemtl Material
s off
f 6/1/1 5/2/1 3/3/1 4/4/1
f 4/4/2 3/3/2 1/5/2 2/6/2
f 5/2/3 6/1/3 8/7/3 7/8/3
f 7/8/4 8/7/4 10/9/4 9/10/4
f 9/10/3 10/9/3 12/11/3 11/12/3
f 11/12/4 12/11/4 2/13/4 1/14/4
f 5/2/5 7/8/5 9/10/5 3/3/5
f 3/3/5 9/10/5 11/12/5 1/14/5
f 4/4/6 10/9/6 8/7/6 6/1/6
f 2/13/6 12/11/6 10/9/6 4/4/6
