# Blender v2.93.5 OBJ File: 'House Tiles.blend'
# www.blender.org
mtllib hs_wall_mid.mtl
o wall_mid_Cube.005
v -1.000000 1.000000 -1.000000
v -1.000000 -1.000000 -1.000000
v -1.000000 1.000000 1.000000
v -1.000000 -1.000000 1.000000
v -0.700000 1.000000 1.000000
v -0.700000 -1.000000 1.000000
v -0.700000 1.000000 -1.000000
v -0.700000 -1.000000 -1.000000
vt 0.375000 0.000000
vt 0.625000 0.000000
vt 0.625000 0.250000
vt 0.375000 0.250000
vt 0.375000 0.000000
vt 0.625000 0.000000
vt 0.375000 0.000000
vt 0.625000 0.000000
vt 0.000000 0.000000
vt 0.000000 0.000000
vt 0.000000 0.000000
vt 0.000000 0.000000
vn -1.0000 0.0000 0.0000
vn 0.0000 0.0000 1.0000
vn 1.0000 0.0000 0.0000
vn 0.0000 1.0000 0.0000
vn 0.0000 -1.0000 0.0000
vn 0.0000 0.0000 -1.0000
usemtl Material
s off
f 4/1/1 3/2/1 1/3/1 2/4/1
f 3/2/2 4/1/2 6/5/2 5/6/2
f 5/6/3 6/5/3 8/7/3 7/8/3
f 3/2/4 5/6/4 7/8/4 1/3/4
f 2/4/5 8/7/5 6/5/5 4/1/5
f 1/9/6 7/10/6 8/11/6 2/12/6
